<svg xmlns="http://www.w3.org/2000/svg" viewBox="0 0 139 139"><defs><style>.cls-1{fill:#fdf4cd;}.cls-2{fill:#fbca0c;}</style></defs><g id="Layer_2" data-name="Layer 2"><g id="Layer_1-2" data-name="Layer 1"><circle class="cls-1" cx="69.5" cy="69.5" r="69.5"/><path class="cls-2" d="M91.6,73A20,20,0,1,1,67,49.63V46.56A23,23,0,1,0,94.64,73Z"/><path class="cls-2" d="M94.64,66H75V47.2a22.79,22.79,0,0,0-3-.2V69H95A21.18,21.18,0,0,0,94.64,66Z"/><path class="cls-2" d="M94.64,66A23,23,0,0,0,75,47.2a22.79,22.79,0,0,0-3-.2v3a21.18,21.18,0,0,1,3,.22A20.07,20.07,0,0,1,91.6,66,18.64,18.64,0,0,1,92,69h3A21.18,21.18,0,0,0,94.64,66Z"/></g></g></svg>